# xmcd
#
# Track frame offsets:
#	150
#	36132
#	66534
#	98688
#	135529
#	173191
#	196218
#
# Disc length: 3009 seconds
#
# Revision: 1
# Processed by: cddbd v1.5.2PL0 Copyright (c) Steve Scherf et al.
# Submitted via: audiograbber 1.83.01
#
DISCID=5d0bbf07
DTITLE=Mary Fatima - Transparence
DYEAR=2008
DGENRE=Jazz
TTITLE0=Moon and sand
TTITLE1=Transparence
TTITLE2=My Funny Valintine
TTITLE3=Run To The Hills 
TTITLE4=Seperation
TTITLE5=So in Love
TTITLE6=Rock Ballad 
EXTD=YEAR: 2008
EXTT0=
EXTT1=
EXTT2=
EXTT3=
EXTT4=
EXTT5=
EXTT6=
PLAYORDER=
